{
	"asset":{
		"generator":"Khronos glTF Blender I/O v3.5.30",
		"version":"2.0"
	},
	"extensionsUsed":[
		"KHR_materials_specular",
		"KHR_materials_ior"
	],
	"scene":0,
	"scenes":[
		{
			"name":"Scene",
			"nodes":[
				0
			]
		}
	],
	"nodes":[
		{
			"mesh":0,
			"name":"TQ_ARD-node",
			"rotation":[
				0,
				0.7071068286895752,
				-0.7071068286895752,
				5.338509012631221e-08
			],
			"translation":[
				0,
				0.30588239431381226,
				0
			]
		}
	],
	"materials":[
		{
			"doubleSided":true,
			"extensions":{
				"KHR_materials_specular":{
					"specularColorFactor":[
						0,
						0,
						0
					]
				},
				"KHR_materials_ior":{
					"ior":0
				}
			},
			"name":"TQ_ARD_front",
			"pbrMetallicRoughness":{
				"baseColorFactor":[
					0.996078372001648,
					0.9019607901573181,
					0.6627451181411743,
					1
				],
				"metallicFactor":0,
				"roughnessFactor":0.5
			}
		},
		{
			"doubleSided":true,
			"extensions":{
				"KHR_materials_specular":{
					"specularColorFactor":[
						0,
						0,
						0
					]
				},
				"KHR_materials_ior":{
					"ior":0
				}
			},
			"name":"TQ_ARD_back",
			"pbrMetallicRoughness":{
				"baseColorFactor":[
					0.996078372001648,
					0.9019607901573181,
					0.6627451181411743,
					1
				],
				"metallicFactor":0,
				"roughnessFactor":0.5
			}
		},
		{
			"doubleSided":true,
			"extensions":{
				"KHR_materials_specular":{
					"specularColorFactor":[
						0,
						0,
						0
					]
				},
				"KHR_materials_ior":{
					"ior":0
				}
			},
			"name":"TQ_ARD_edge",
			"pbrMetallicRoughness":{
				"baseColorTexture":{
					"index":0
				},
				"metallicFactor":0,
				"roughnessFactor":0.5
			}
		}
	],
	"meshes":[
		{
			"name":"TQ_ARD-geom",
			"primitives":[
				{
					"attributes":{
						"POSITION":0,
						"TEXCOORD_0":1,
						"NORMAL":2
					},
					"indices":3,
					"material":0
				},
				{
					"attributes":{
						"POSITION":4,
						"TEXCOORD_0":5,
						"NORMAL":6
					},
					"indices":7,
					"material":1
				},
				{
					"attributes":{
						"POSITION":8,
						"TEXCOORD_0":9,
						"NORMAL":10
					},
					"indices":11,
					"material":2
				}
			]
		}
	],
	"textures":[
		{
			"sampler":0,
			"source":0
		}
	],
	"images":[
		{
			"bufferView":12,
			"mimeType":"image/png",
			"name":"TQ_ARD-I1"
		}
	],
	"accessors":[
		{
			"bufferView":0,
			"componentType":5126,
			"count":1411,
			"max":[
				0.16337323188781738,
				0.17979669570922852,
				0.30460742115974426
			],
			"min":[
				-0.1798020899295807,
				-0.16337856650352478,
				-0.30753007531166077
			],
			"type":"VEC3"
		},
		{
			"bufferView":1,
			"componentType":5126,
			"count":1411,
			"type":"VEC2"
		},
		{
			"bufferView":2,
			"componentType":5126,
			"count":1411,
			"type":"VEC3"
		},
		{
			"bufferView":3,
			"componentType":5123,
			"count":2922,
			"type":"SCALAR"
		},
		{
			"bufferView":4,
			"componentType":5126,
			"count":1238,
			"max":[
				0.16142380237579346,
				0.17776912450790405,
				0.3025549650192261
			],
			"min":[
				-0.1779046356678009,
				-0.16143813729286194,
				-0.30435559153556824
			],
			"type":"VEC3"
		},
		{
			"bufferView":5,
			"componentType":5126,
			"count":1238,
			"type":"VEC2"
		},
		{
			"bufferView":6,
			"componentType":5126,
			"count":1238,
			"type":"VEC3"
		},
		{
			"bufferView":7,
			"componentType":5123,
			"count":2922,
			"type":"SCALAR"
		},
		{
			"bufferView":8,
			"componentType":5126,
			"count":548,
			"max":[
				0.16337323188781738,
				0.17883312702178955,
				0.30460742115974426
			],
			"min":[
				-0.1798020899295807,
				-0.16234293580055237,
				-0.30753007531166077
			],
			"type":"VEC3"
		},
		{
			"bufferView":9,
			"componentType":5126,
			"count":548,
			"type":"VEC2"
		},
		{
			"bufferView":10,
			"componentType":5126,
			"count":548,
			"type":"VEC3"
		},
		{
			"bufferView":11,
			"componentType":5123,
			"count":1176,
			"type":"SCALAR"
		}
	],
	"bufferViews":[
		{
			"buffer":0,
			"byteLength":16932,
			"byteOffset":0,
			"target":34962
		},
		{
			"buffer":0,
			"byteLength":11288,
			"byteOffset":16932,
			"target":34962
		},
		{
			"buffer":0,
			"byteLength":16932,
			"byteOffset":28220,
			"target":34962
		},
		{
			"buffer":0,
			"byteLength":5844,
			"byteOffset":45152,
			"target":34963
		},
		{
			"buffer":0,
			"byteLength":14856,
			"byteOffset":50996,
			"target":34962
		},
		{
			"buffer":0,
			"byteLength":9904,
			"byteOffset":65852,
			"target":34962
		},
		{
			"buffer":0,
			"byteLength":14856,
			"byteOffset":75756,
			"target":34962
		},
		{
			"buffer":0,
			"byteLength":5844,
			"byteOffset":90612,
			"target":34963
		},
		{
			"buffer":0,
			"byteLength":6576,
			"byteOffset":96456,
			"target":34962
		},
		{
			"buffer":0,
			"byteLength":4384,
			"byteOffset":103032,
			"target":34962
		},
		{
			"buffer":0,
			"byteLength":6576,
			"byteOffset":107416,
			"target":34962
		},
		{
			"buffer":0,
			"byteLength":2352,
			"byteOffset":113992,
			"target":34963
		},
		{
			"buffer":0,
			"byteLength":767,
			"byteOffset":116344
		}
	],
	"samplers":[
		{
			"magFilter":9729,
			"minFilter":9987
		}
	],
	"buffers":[
		{
			"byteLength":117112,
			"uri":"data:application/octet-stream;base64,"
		}
	]
}
